<?xml version="1.0" encoding="UTF-8"?>
<svg version="1.1" xmlns="http://www.w3.org/2000/svg" width="1024" height="1024">
<path d="M0 0 C1.60511945 -0.00274897 3.21023709 -0.00680815 4.81535035 -0.01204365 C9.17379602 -0.02251665 13.53203318 -0.01457655 17.89046943 -0.00329316 C22.61100908 0.00561962 27.33152349 -0.00291485 32.05206299 -0.00915527 C41.27811992 -0.01860373 50.50409818 -0.01207858 59.73014923 0.00010767 C70.48797192 0.01378372 81.24577623 0.01208493 92.0036054 0.00997434 C111.20402389 0.00679034 130.40440517 0.01841913 149.60481262 0.03804016 C168.21192049 0.05704974 186.8189848 0.06412487 205.42610168 0.05854797 C225.72049825 0.0524833 246.0148757 0.05267926 266.30927068 0.06403381 C268.47516557 0.06524102 270.64106045 0.06644701 272.80695534 0.06765175 C273.87244536 0.06825529 274.93793538 0.06885883 276.03571298 0.06948065 C283.52490123 0.07335118 291.01408234 0.07296957 298.5032711 0.0710659 C307.63435851 0.06893873 316.76540787 0.07420769 325.89648458 0.08867946 C330.55039136 0.09589753 335.20424288 0.10002264 339.8581543 0.0954361 C344.12594424 0.09133252 348.39362053 0.09660156 352.66139332 0.10906217 C354.19746062 0.11196796 355.73353878 0.11158996 357.26960316 0.1074191 C383.20610545 0.04343847 404.38859727 6.40999752 423.31990051 24.3742218 C424.6794304 26.01958925 426.01799984 27.68288795 427.31990051 29.3742218 C427.97990051 30.0342218 428.63990051 30.6942218 429.31990051 31.3742218 C433.28511587 36.9398554 436.1282813 42.89888342 438.56990051 49.2492218 C438.81578918 49.87200012 439.06167786 50.49477844 439.3150177 51.13642883 C443.43499966 62.29447652 443.61332929 73.85007834 443.58732605 85.59817505 C443.59106915 87.21476521 443.59567328 88.83135357 443.60105669 90.4479391 C443.61322029 94.86130566 443.61303413 99.27459605 443.61066794 103.68797553 C443.6102581 108.45906897 443.62131477 113.23013853 443.63078308 118.0012207 C443.64735674 127.33722834 443.65289095 136.67321072 443.65400784 146.00923184 C443.65495988 153.60083072 443.65907798 161.19242131 443.66540909 168.78401756 C443.68301032 190.32945018 443.69224952 211.87486292 443.69074814 233.42030279 C443.69062827 235.16056765 443.69062827 235.16056765 443.69050598 236.93598938 C443.69042422 238.0975897 443.69034246 239.25919001 443.69025822 240.45599034 C443.68944528 259.2821199 443.708588 278.10816947 443.73678271 296.9342759 C443.76553524 316.28619629 443.77932176 335.63807769 443.77759516 354.99001998 C443.77693216 365.84613183 443.78238535 376.70215977 443.80395126 387.55825233 C443.82219406 396.80034469 443.82648482 406.04231507 443.81293242 415.28441767 C443.80641889 419.99518961 443.80622706 424.70572775 443.82363892 429.4164772 C443.839446 433.73766331 443.83642881 438.05843172 443.81907065 442.37960812 C443.81601751 443.93401668 443.81956877 445.48845701 443.8307908 447.04282806 C443.92037287 460.34288882 441.87208248 472.80713278 435.56990051 484.6867218 C435.22483459 485.35131409 434.87976868 486.01590637 434.52424622 486.70063782 C425.23353195 504.06088053 409.59811075 515.28131375 391.06990051 521.3117218 C371.79501601 525.48185978 350.4839489 523.52504901 330.83850873 523.51960552 C326.18344847 523.51939926 321.52839418 523.52494118 316.87333679 523.52966309 C307.78173703 523.53791938 298.69014376 523.54071556 289.59854057 523.54127546 C282.2059344 523.54175262 274.81333036 523.54381727 267.42072487 523.54697609 C246.42059833 523.55576568 225.42047688 523.56039764 204.42034849 523.55964562 C203.2915781 523.55960566 202.16280771 523.5595657 200.99983215 523.55952454 C199.86967138 523.55948366 198.73951061 523.55944277 197.57510255 523.55940066 C179.2377299 523.55899373 160.90037773 523.5685794 142.56301101 523.5826629 C123.6944869 523.59703922 104.82597278 523.60393253 85.95744306 523.60306913 C75.37981474 523.6027378 64.80220795 523.60545743 54.22458458 523.61624718 C45.22608922 523.62536827 36.22762518 523.62751388 27.22912719 523.62073775 C22.64392965 523.61748189 18.05879215 523.61738226 13.47360039 523.626091 C9.2675656 523.63399728 5.06163807 523.63248286 0.85560576 523.62380687 C-0.65683979 523.62228103 -2.16929351 523.62405302 -3.68172941 523.62966695 C-28.36451817 523.71513889 -48.57851259 519.13889253 -66.68009949 501.3742218 C-67.62175964 500.46929993 -67.62175964 500.46929993 -68.58244324 499.5460968 C-82.58802134 484.93710377 -86.27905858 465.50446178 -86.28507996 446.01557922 C-86.29992948 444.41695723 -86.31639723 442.81834961 -86.33430862 441.21975899 C-86.37809988 436.83936945 -86.39700013 432.45918645 -86.4110589 428.07861352 C-86.42637846 424.27682716 -86.45616945 420.47520339 -86.48574102 416.67350525 C-86.58559996 403.74930306 -86.63402615 390.82509816 -86.67016411 377.90058041 C-86.68023094 374.32756532 -86.69115024 370.75455359 -86.70220947 367.18154144 C-86.8082981 332.19028592 -86.82490245 297.19925433 -86.80956456 262.20789085 C-86.8050677 251.78977928 -86.80589328 241.3716789 -86.81047058 230.9535675 C-86.81591108 218.56666627 -86.81788307 206.17977153 -86.81485832 193.79286927 C-86.81332265 187.33957502 -86.81296896 180.88628679 -86.81639481 174.43299294 C-86.82324955 159.00465259 -86.79218148 143.57698442 -86.70171833 128.14889193 C-86.68682432 125.54838348 -86.67295175 122.94788951 -86.66058636 120.34736967 C-86.6232807 112.67049976 -86.57071415 104.99407186 -86.48538872 97.31757146 C-86.4482965 93.97120005 -86.41880233 90.62527319 -86.40179276 87.27870429 C-86.25692445 61.08378453 -82.10480845 40.4809256 -63.42228699 21.0226593 C-45.2889307 4.18918518 -23.88010469 -0.12574608 0 0 Z " fill="#00607B" transform="translate(333.6800994873047,242.6257781982422)"/>
<path d="M0 0 C1.60511945 -0.00274897 3.21023709 -0.00680815 4.81535035 -0.01204365 C9.17379602 -0.02251665 13.53203318 -0.01457655 17.89046943 -0.00329316 C22.61100908 0.00561962 27.33152349 -0.00291485 32.05206299 -0.00915527 C41.27811992 -0.01860373 50.50409818 -0.01207858 59.73014923 0.00010767 C70.48797192 0.01378372 81.24577623 0.01208493 92.0036054 0.00997434 C111.20402389 0.00679034 130.40440517 0.01841913 149.60481262 0.03804016 C168.21192049 0.05704974 186.8189848 0.06412487 205.42610168 0.05854797 C225.72049825 0.0524833 246.0148757 0.05267926 266.30927068 0.06403381 C268.47516557 0.06524102 270.64106045 0.06644701 272.80695534 0.06765175 C273.87244536 0.06825529 274.93793538 0.06885883 276.03571298 0.06948065 C283.52490123 0.07335118 291.01408234 0.07296957 298.5032711 0.0710659 C307.63435851 0.06893873 316.76540787 0.07420769 325.89648458 0.08867946 C330.55039136 0.09589753 335.20424288 0.10002264 339.8581543 0.0954361 C344.12594424 0.09133252 348.39362053 0.09660156 352.66139332 0.10906217 C354.19746062 0.11196796 355.73353878 0.11158996 357.26960316 0.1074191 C383.20610545 0.04343847 404.38859727 6.40999752 423.31990051 24.3742218 C424.6794304 26.01958925 426.01799984 27.68288795 427.31990051 29.3742218 C427.97990051 30.0342218 428.63990051 30.6942218 429.31990051 31.3742218 C433.28511587 36.9398554 436.1282813 42.89888342 438.56990051 49.2492218 C438.81578918 49.87200012 439.06167786 50.49477844 439.3150177 51.13642883 C445.66483619 68.33348899 444.01933075 88.06582082 444.18489075 106.10102844 C444.22514821 110.08169972 444.30203521 114.0591411 444.41047668 118.03852844 C444.54201633 122.87683832 444.60921382 127.71210972 444.63118172 132.5521183 C444.65006584 134.38437736 444.69114282 136.21655593 444.75552177 138.04778099 C445.21879118 151.94050362 445.21879118 151.94050362 442.03783417 156.01738548 C438.54505689 159.2284196 434.57252545 161.29438908 430.31990051 163.3742218 C429.08159099 164.18080195 427.8553135 165.00704239 426.65583801 165.87031555 C378.53138512 197.42421144 314.74872898 211.72908321 257.81452942 199.92207336 C256.57968811 199.65088684 256.57968811 199.65088684 255.31990051 199.3742218 C254.37421204 199.17022766 253.42852356 198.96623352 252.45417786 198.75605774 C211.64587853 189.71678589 177.24076677 171.44103389 142.75740051 148.3117218 C134.42210274 142.7267439 126.04937732 137.32233822 117.31990051 132.3742218 C116.64942688 131.98846985 115.97895325 131.6027179 115.28816223 131.20527649 C70.10115297 105.43447928 11.56323039 93.31910965 -39.68009949 106.3742218 C-40.93862732 106.67972961 -40.93862732 106.67972961 -42.22257996 106.9914093 C-55.08186381 110.185895 -66.72076275 115.31808074 -78.50212097 121.32441711 C-80.85515669 122.4586009 -83.25153477 123.41426473 -85.68009949 124.3742218 C-85.77360504 116.67999759 -85.84426654 108.98583374 -85.88734818 101.29116726 C-85.9080463 97.71651289 -85.93602866 94.14225284 -85.9818573 90.56782532 C-86.0259627 87.10533961 -86.04936939 83.64322824 -86.05960846 80.18048286 C-86.07037907 78.24489089 -86.10149589 76.30944535 -86.13328552 74.37408447 C-86.13842487 53.61875288 -77.66489878 35.85665982 -63.42228699 21.0226593 C-45.2889307 4.18918518 -23.88010469 -0.12574608 0 0 Z " fill="#DFE7E3" transform="translate(333.6800994873047,242.6257781982422)"/>
<path d="M0 0 C0.81699371 -0.00199402 1.63398743 -0.00398804 2.47573853 -0.00604248 C18.06085936 -0.00173606 33.45863524 1.16911148 48.6875 4.625 C49.656875 4.84260986 50.62625 5.06021973 51.625 5.28442383 C87.13224667 13.51591465 118.23715526 31.5133755 148.14282227 51.73901367 C192.64636299 81.7983862 240.99582475 100.83068543 295.25 100.8125 C296.21016022 100.81323517 297.17032043 100.81397034 298.15957642 100.81472778 C348.35437583 100.71441199 395.8951185 85.07360635 436.0078125 54.84375 C438.1875 53.375 438.1875 53.375 440.1875 53.375 C440.1875 92.645 440.1875 131.915 440.1875 172.375 C439.5275 172.375 438.8675 172.375 438.1875 172.375 C438.1875 173.035 438.1875 173.695 438.1875 174.375 C436.60546875 175.74438477 436.60546875 175.74438477 434.375 177.31640625 C433.55507568 177.89559814 432.73515137 178.47479004 431.89038086 179.0715332 C430.99843018 179.68730225 430.10647949 180.30307129 429.1875 180.9375 C428.27556885 181.56938232 427.3636377 182.20126465 426.42407227 182.85229492 C418.5918482 188.2135614 410.62741549 193.04104387 402.1875 197.375 C401.47867676 197.74431641 400.76985352 198.11363281 400.03955078 198.49414062 C380.18523857 208.73308749 359.06354726 215.12098063 337.1875 219.375 C336.41100098 219.53871094 335.63450195 219.70242188 334.83447266 219.87109375 C288.81228023 229.39631981 238.25096168 220.73271997 195.8125 201.9375 C195.05291992 201.60258545 194.29333984 201.2676709 193.51074219 200.92260742 C181.92485452 195.62871369 171.15360994 188.89215269 160.62237549 181.76495361 C158.87830934 180.58495277 157.12985947 179.41169066 155.38037109 178.23974609 C150.29979372 174.83351794 145.23189902 171.40913974 140.1796875 167.9609375 C89.30595887 133.36613418 29.15267988 113.09551075 -32.76904297 123.78857422 C-49.50209402 127.01276711 -65.21596092 132.17061507 -80.61621094 139.43286133 C-83.28390576 140.57721819 -86.05867839 141.45705946 -88.8125 142.375 C-89.1425 103.105 -89.4725 63.835 -89.8125 23.375 C-73.93668116 15.43709058 -59.82633842 8.76596534 -42.8125 4.375 C-41.97831543 4.1589209 -41.14413086 3.9428418 -40.28466797 3.72021484 C-26.93271451 0.44658107 -13.67405907 0.00876907 0 0 Z " fill="#65A3AD" transform="translate(336.8125,343.625)"/>
<path d="M0 0 C52.45359544 37.31878751 116.59220794 57.94543472 181.36035156 47.12841797 C183.79058328 46.67094771 186.20636553 46.16518744 188.62451172 45.64770508 C189.63046387 45.44371094 190.63641602 45.2397168 191.67285156 45.02954102 C223.78120723 38.45376509 256.01343013 26.9059057 281.72216797 5.93676758 C284.19856984 4.25871292 286.78683703 3.55327943 289.62451172 2.64770508 C289.99938791 17.95501109 290.28095284 33.26210511 290.45350647 48.57297897 C290.53578495 55.68360167 290.64779092 62.79136229 290.83154297 69.90014648 C290.9917582 76.10135831 291.09440693 82.3004975 291.12992764 88.50372148 C291.15068006 91.78563471 291.20742667 95.06028766 291.31619263 98.34062958 C291.94863996 118.21357723 291.94863996 118.21357723 288.10964966 123.88606262 C284.49430269 127.6272788 280.38397415 130.20533596 275.76566601 132.54354954 C272.78492209 134.08066666 269.99180421 135.87855613 267.16465473 137.67840099 C215.70621949 170.27262067 149.14465621 177.99619047 90.38427734 164.89794922 C54.83083707 156.3796826 24.64498444 140.55684492 -4.83251953 119.46411133 C-43.31099995 91.94097727 -88.24790319 70.83529943 -136.35205078 70.40942383 C-137.73212311 70.39466507 -137.73212311 70.39466507 -139.14007568 70.37960815 C-167.49968424 70.01607701 -167.49968424 70.01607701 -195.37548828 74.64770508 C-196.33455078 74.89439941 -197.29361328 75.14109375 -198.28173828 75.39526367 C-211.71868242 78.95789095 -223.47928288 83.91605824 -236.37548828 89.64770508 C-236.70548828 50.04770508 -237.03548828 10.44770508 -237.37548828 -30.35229492 C-155.59464049 -69.09059124 -71.79236455 -51.41012993 0 0 Z " fill="#217F96" transform="translate(485.37548828125,516.352294921875)"/>
<path d="M0 0 C0.66 0 1.32 0 2 0 C2 62.04 2 124.08 2 188 C1.34 188.33 0.68 188.66 0 189 C-0.33 127.95 -0.66 66.9 -1 4 C-1.99 4 -2.98 4 -4 4 C-2.68 3.34 -1.36 2.68 0 2 C0 1.34 0 0.68 0 0 Z " fill="#145C70" transform="translate(775,516)"/>
<path d="M0 0 C0.66 0 1.32 0 2 0 C2 39.27 2 78.54 2 119 C1.34 119 0.68 119 0 119 C-0.15376413 103.63203736 -0.30180104 88.26402702 -0.4429636 72.89594364 C-0.50863788 65.7607593 -0.57620749 58.6256022 -0.64819336 51.49047852 C-0.71759334 44.6111413 -0.78177196 37.73177148 -0.84269524 30.85235405 C-0.86686396 28.22116876 -0.89281439 25.58999923 -0.92053413 22.95884895 C-0.95891221 19.28777664 -0.9910868 15.61670049 -1.02172852 11.94555664 C-1.03467453 10.84576477 -1.04762054 9.7459729 -1.06095886 8.612854 C-1.06799835 7.61860916 -1.07503784 6.62436432 -1.08229065 5.59999084 C-1.09058679 4.73074006 -1.09888292 3.86148928 -1.10743046 2.96589756 C-1 1 -1 1 0 0 Z " fill="#528B96" transform="translate(775,397)"/>
<path d="M0 0 C0.33 0 0.66 0 1 0 C2.42229817 12.23176423 -5.82405791 25.12536038 -13.125 34.375 C-17.70967337 39.99434673 -17.70967337 39.99434673 -20 42 C-20.66 42 -21.32 42 -22 42 C-21 39 -21 39 -18.875 37.4375 C-8.02126189 28.23541769 -2.78282154 13.54794697 0 0 Z " fill="#034052" transform="translate(774,706)"/>
<path d="M0 0 C-3.74525799 3.74525799 -7.98270909 3.68909949 -13 4 C-10.96180154 1.96180154 -9.70582202 1.32158941 -7.0625 0.3125 C-6.37285156 0.04050781 -5.68320312 -0.23148437 -4.97265625 -0.51171875 C-3 -1 -3 -1 0 0 Z " fill="#3C8B98" transform="translate(722,430)"/>
<path d="M0 0 C0.66 0.33 1.32 0.66 2 1 C1.2575 1.4125 0.515 1.825 -0.25 2.25 C-2.90171685 3.93745618 -4.86674014 5.70872089 -7 8 C-7.33 7.01 -7.66 6.02 -8 5 C-6.71475739 4.13619741 -5.42157581 3.28419631 -4.125 2.4375 C-3.04605469 1.72400391 -3.04605469 1.72400391 -1.9453125 0.99609375 C-1.30335938 0.66738281 -0.66140625 0.33867187 0 0 Z " fill="#458F9B" transform="translate(257,362)"/>
<path d="M0 0 C4 1 4 1 4 1 Z " fill="#CBD2CE" transform="translate(674,241)"/>
<path d="M0 0 C4 1 4 1 4 1 Z " fill="#CDD4CD" transform="translate(500,241)"/>
<path d="M0 0 C4 1 4 1 4 1 Z " fill="#CBD2CD" transform="translate(388,241)"/>
<path d="M0 0 C4 1 4 1 4 1 Z " fill="#CBD2CE" transform="translate(324,241)"/>
<path d="" fill="#0E5C70" transform="translate(0,0)"/>
<path d="M0 0 C3 1 3 1 3 1 Z " fill="#CCD1CD" transform="translate(662,241)"/>
<path d="M0 0 C3 1 3 1 3 1 Z " fill="#CCD2CD" transform="translate(651,241)"/>
<path d="M0 0 C3 1 3 1 3 1 Z " fill="#CDD2CE" transform="translate(642,241)"/>
<path d="M0 0 C2 1 2 1 2 1 Z " fill="#096077" transform="translate(368,767)"/>
<path d="M0 0 C2 1 2 1 2 1 Z " fill="#0A5A6F" transform="translate(307,766)"/>
<path d="" fill="#0C5D71" transform="translate(0,0)"/>
<path d="M0 0 C2 1 2 1 2 1 Z " fill="#CCD3CE" transform="translate(668,241)"/>
<path d="M0 0 C2 1 2 1 2 1 Z " fill="#CDD2CD" transform="translate(636,241)"/>
<path d="M0 0 C2 1 2 1 2 1 Z " fill="#CBD2CB" transform="translate(614,241)"/>
<path d="M0 0 C2 1 2 1 2 1 Z " fill="#CCD2CE" transform="translate(602,241)"/>
<path d="M0 0 C2 1 2 1 2 1 Z " fill="#CCD1CB" transform="translate(590,241)"/>
<path d="M0 0 C2 1 2 1 2 1 Z " fill="#CED4CE" transform="translate(572,241)"/>
<path d="M0 0 C2 1 2 1 2 1 Z " fill="#CCD3CE" transform="translate(556,241)"/>
<path d="M0 0 C2 1 2 1 2 1 Z " fill="#CDD4CD" transform="translate(484,241)"/>
<path d="M0 0 C2 1 2 1 2 1 Z " fill="#CDD3CE" transform="translate(468,241)"/>
<path d="M0 0 C2 1 2 1 2 1 Z " fill="#CBD1CE" transform="translate(404,241)"/>
<path d="M0 0 C2 1 2 1 2 1 Z " fill="#CDD3CD" transform="translate(372,241)"/>
<path d="M0 0 C2 1 2 1 2 1 Z " fill="#CCD2CE" transform="translate(340,241)"/>
<path d="" fill="#101A19" transform="translate(0,0)"/>
<path d="" fill="#0B6279" transform="translate(0,0)"/>
<path d="" fill="#096275" transform="translate(0,0)"/>
<path d="" fill="#0A6177" transform="translate(0,0)"/>
<path d="" fill="#086276" transform="translate(0,0)"/>
<path d="" fill="#085F75" transform="translate(0,0)"/>
<path d="" fill="#096077" transform="translate(0,0)"/>
<path d="" fill="#0A6177" transform="translate(0,0)"/>
<path d="" fill="#0B5D70" transform="translate(0,0)"/>
<path d="" fill="#0A6074" transform="translate(0,0)"/>
<path d="" fill="#0A5E72" transform="translate(0,0)"/>
<path d="" fill="#0C5A6F" transform="translate(0,0)"/>
<path d="" fill="#0C5A70" transform="translate(0,0)"/>
<path d="" fill="#0C5C6D" transform="translate(0,0)"/>
<path d="" fill="#0F586B" transform="translate(0,0)"/>
<path d="" fill="#0B5D74" transform="translate(0,0)"/>
<path d="" fill="#0E5A6F" transform="translate(0,0)"/>
<path d="" fill="#0E5E6F" transform="translate(0,0)"/>
<path d="" fill="#0A5B70" transform="translate(0,0)"/>
<path d="" fill="#0B5D72" transform="translate(0,0)"/>
<path d="" fill="#5B8E98" transform="translate(0,0)"/>
<path d="" fill="#82A6A9" transform="translate(0,0)"/>
<path d="" fill="#8FADAF" transform="translate(0,0)"/>
<path d="" fill="#C2CBCA" transform="translate(0,0)"/>
<path d="" fill="#C5CECC" transform="translate(0,0)"/>
<path d="" fill="#C7CFCD" transform="translate(0,0)"/>
<path d="" fill="#C2CAC7" transform="translate(0,0)"/>
<path d="" fill="#CAD1CE" transform="translate(0,0)"/>
<path d="" fill="#C0CAC4" transform="translate(0,0)"/>
<path d="" fill="#C7CFCB" transform="translate(0,0)"/>
<path d="" fill="#C9CECD" transform="translate(0,0)"/>
<path d="" fill="#C7CECA" transform="translate(0,0)"/>
<path d="" fill="#C8CFC9" transform="translate(0,0)"/>
<path d="" fill="#C9CFCD" transform="translate(0,0)"/>
<path d="" fill="#CBD1CE" transform="translate(0,0)"/>
<path d="" fill="#CAD1CD" transform="translate(0,0)"/>
<path d="" fill="#C9CECC" transform="translate(0,0)"/>
<path d="" fill="#C9D0CD" transform="translate(0,0)"/>
<path d="" fill="#CAD0CD" transform="translate(0,0)"/>
<path d="" fill="#CCD4CF" transform="translate(0,0)"/>
<path d="" fill="#CCD3CD" transform="translate(0,0)"/>
<path d="" fill="#CCD2CD" transform="translate(0,0)"/>
<path d="" fill="#CDD3CF" transform="translate(0,0)"/>
<path d="" fill="#C9D2CC" transform="translate(0,0)"/>
<path d="" fill="#CDD2CD" transform="translate(0,0)"/>
<path d="" fill="#CAD2CD" transform="translate(0,0)"/>
<path d="" fill="#CAD2CC" transform="translate(0,0)"/>
<path d="" fill="#CBD1CC" transform="translate(0,0)"/>
<path d="" fill="#CDD3CD" transform="translate(0,0)"/>
<path d="" fill="#CCD3CE" transform="translate(0,0)"/>
<path d="" fill="#CCD3CF" transform="translate(0,0)"/>
<path d="" fill="#CBD1CD" transform="translate(0,0)"/>
<path d="" fill="#CDD3CE" transform="translate(0,0)"/>
<path d="" fill="#CDD4CD" transform="translate(0,0)"/>
<path d="" fill="#CED4CF" transform="translate(0,0)"/>
<path d="" fill="#CED1CD" transform="translate(0,0)"/>
<path d="" fill="#CCD2CE" transform="translate(0,0)"/>
<path d="" fill="#CDD2CD" transform="translate(0,0)"/>
<path d="" fill="#CCD1CD" transform="translate(0,0)"/>
<path d="" fill="#CCD2CB" transform="translate(0,0)"/>
<path d="" fill="#CED2CC" transform="translate(0,0)"/>
<path d="" fill="#CCD0CC" transform="translate(0,0)"/>
<path d="" fill="#CDD3CE" transform="translate(0,0)"/>
<path d="" fill="#CDD3CD" transform="translate(0,0)"/>
<path d="" fill="#CED3CD" transform="translate(0,0)"/>
<path d="" fill="#CAD0CD" transform="translate(0,0)"/>
<path d="" fill="#CCD3CC" transform="translate(0,0)"/>
<path d="" fill="#CED2CE" transform="translate(0,0)"/>
<path d="" fill="#CED4CD" transform="translate(0,0)"/>
<path d="" fill="#CDD2CE" transform="translate(0,0)"/>
<path d="" fill="#CDD2CD" transform="translate(0,0)"/>
<path d="" fill="#CBD2CC" transform="translate(0,0)"/>
<path d="" fill="#CBD2CD" transform="translate(0,0)"/>
<path d="" fill="#CAD2CE" transform="translate(0,0)"/>
<path d="" fill="#CCD2CC" transform="translate(0,0)"/>
<path d="" fill="#CCD2CD" transform="translate(0,0)"/>
<path d="" fill="#CCD3CD" transform="translate(0,0)"/>
<path d="" fill="#CAD2CC" transform="translate(0,0)"/>
<path d="" fill="#CBD4CE" transform="translate(0,0)"/>
<path d="" fill="#CDD2CE" transform="translate(0,0)"/>
<path d="" fill="#CCD2CD" transform="translate(0,0)"/>
<path d="" fill="#CDD3CE" transform="translate(0,0)"/>
</svg>
